<svg width="317" height="52" viewBox="0 0 317 52" fill="none" xmlns="http://www.w3.org/2000/svg">
<g filter="url(#filter0_d_215_8)">
<rect x="6" width="305" height="40" rx="15" fill="#F9FFD2"/>
</g>
<path d="M116.464 26C116.264 26 116.09 25.9292 115.944 25.7876C115.802 25.6411 115.731 25.4678 115.731 25.2676L115.709 16.1782C115.705 16.1343 115.702 16.0903 115.702 16.0464C115.702 15.978 115.717 15.9121 115.746 15.8486C115.78 15.7852 115.819 15.7192 115.863 15.6509C115.98 15.4604 116.149 15.3652 116.369 15.3652C116.72 15.3652 116.962 15.502 117.094 15.7754L121.012 22.1694L124.638 15.7681C124.784 15.5239 124.982 15.4019 125.231 15.4019C125.441 15.4019 125.624 15.4702 125.78 15.6069C125.937 15.7437 126.015 15.9194 126.015 16.1343V25.2969C126.015 25.4971 125.941 25.6704 125.795 25.8169C125.653 25.9585 125.482 26.0293 125.282 26.0293C125.082 26.0293 124.909 25.9585 124.762 25.8169C124.621 25.6704 124.55 25.4971 124.55 25.2969V18.749L121.671 23.9785C121.618 24.0664 121.535 24.1519 121.422 24.2349C121.31 24.313 121.188 24.3521 121.056 24.3521C120.773 24.3521 120.556 24.2349 120.404 24.0005L117.174 18.7197L117.196 25.2603V25.2676C117.196 25.4678 117.123 25.6411 116.977 25.7876C116.835 25.9292 116.664 26 116.464 26ZM128.051 17.2256C127.826 17.2256 127.643 17.1572 127.501 17.0205C127.36 16.8789 127.287 16.7056 127.282 16.5005L127.267 15.9438C127.267 15.7583 127.35 15.6094 127.516 15.4971C127.682 15.3799 127.841 15.3213 127.992 15.3213C128.197 15.3213 128.368 15.3921 128.505 15.5337C128.646 15.6753 128.72 15.8462 128.725 16.0464L128.732 16.4858C128.732 16.6763 128.668 16.8472 128.542 16.9985C128.415 17.1499 128.251 17.2256 128.051 17.2256ZM127.26 18.6099C127.26 18.4243 127.338 18.2729 127.494 18.1558C127.65 18.0386 127.802 17.98 127.948 17.98C128.163 17.98 128.346 18.0435 128.498 18.1704C128.649 18.2974 128.725 18.4658 128.725 18.6758V18.6831L128.739 25.4653C128.739 25.6606 128.666 25.8267 128.52 25.9634C128.378 26.1001 128.207 26.1685 128.007 26.1685C127.802 26.1685 127.628 26.1001 127.487 25.9634C127.345 25.8218 127.274 25.6533 127.274 25.458L127.26 18.6099ZM135.023 18.9028C135.023 19.2935 134.835 19.5107 134.459 19.5547C134.323 19.5693 134.149 19.5254 133.939 19.4229C133.729 19.3154 133.517 19.2617 133.302 19.2617C132.877 19.2617 132.541 19.3716 132.292 19.5913C132.042 19.8062 131.864 20.0967 131.757 20.4629C131.649 20.8291 131.596 21.2393 131.596 21.6934V25.4727C131.596 25.6875 131.53 25.8584 131.398 25.9854C131.271 26.1123 131.093 26.1758 130.863 26.1758C130.639 26.1758 130.46 26.1123 130.329 25.9854C130.197 25.8584 130.131 25.6851 130.131 25.4653V18.7197C130.131 18.5 130.185 18.3193 130.292 18.1777C130.404 18.0361 130.556 17.9653 130.746 17.9653C130.858 17.9653 130.988 18.0142 131.134 18.1118C131.286 18.2046 131.391 18.3657 131.449 18.5952L131.522 19.1226C131.586 18.9858 131.708 18.8271 131.889 18.6465C132.069 18.4658 132.284 18.3096 132.533 18.1777C132.782 18.041 133.041 17.9727 133.31 17.9727C133.808 17.9727 134.218 18.0312 134.54 18.1484C134.862 18.2607 135.023 18.5122 135.023 18.9028ZM140.795 18.9028C140.795 19.2935 140.607 19.5107 140.231 19.5547C140.094 19.5693 139.921 19.5254 139.711 19.4229C139.501 19.3154 139.289 19.2617 139.074 19.2617C138.649 19.2617 138.312 19.3716 138.063 19.5913C137.814 19.8062 137.636 20.0967 137.528 20.4629C137.421 20.8291 137.367 21.2393 137.367 21.6934V25.4727C137.367 25.6875 137.301 25.8584 137.169 25.9854C137.042 26.1123 136.864 26.1758 136.635 26.1758C136.41 26.1758 136.232 26.1123 136.1 25.9854C135.968 25.8584 135.902 25.6851 135.902 25.4653V18.7197C135.902 18.5 135.956 18.3193 136.063 18.1777C136.176 18.0361 136.327 17.9653 136.518 17.9653C136.63 17.9653 136.759 18.0142 136.906 18.1118C137.057 18.2046 137.162 18.3657 137.221 18.5952L137.294 19.1226C137.357 18.9858 137.479 18.8271 137.66 18.6465C137.841 18.4658 138.056 18.3096 138.305 18.1777C138.554 18.041 138.812 17.9727 139.081 17.9727C139.579 17.9727 139.989 18.0312 140.312 18.1484C140.634 18.2607 140.795 18.5122 140.795 18.9028ZM144.992 17.98C145.553 17.98 146.076 18.0874 146.559 18.3022C147.047 18.5171 147.475 18.8149 147.841 19.1958C148.207 19.5767 148.493 20.0137 148.698 20.5068C148.908 21 149.013 21.5249 149.013 22.0815C149.013 22.6284 148.908 23.1484 148.698 23.6416C148.488 24.1299 148.197 24.562 147.826 24.938C147.46 25.3091 147.033 25.6021 146.544 25.8169C146.061 26.0317 145.543 26.1392 144.992 26.1392C144.445 26.1392 143.927 26.0342 143.439 25.8242C142.956 25.6143 142.528 25.3237 142.157 24.9526C141.791 24.5815 141.503 24.1519 141.293 23.6636C141.083 23.1704 140.978 22.6431 140.978 22.0815C140.978 21.5249 141.083 21 141.293 20.5068C141.503 20.0137 141.791 19.5791 142.157 19.2031C142.528 18.8223 142.956 18.5244 143.439 18.3096C143.922 18.0898 144.44 17.98 144.992 17.98ZM142.458 22.0962C142.458 22.5698 142.572 23.002 142.802 23.3926C143.036 23.7783 143.346 24.0859 143.732 24.3154C144.118 24.5449 144.54 24.6597 144.999 24.6597C145.468 24.6597 145.893 24.5425 146.273 24.3081C146.659 24.0688 146.964 23.7539 147.189 23.3633C147.418 22.9727 147.533 22.5454 147.533 22.0815C147.533 21.6079 147.421 21.1733 147.196 20.7778C146.972 20.3774 146.667 20.0576 146.281 19.8184C145.9 19.5791 145.47 19.4595 144.992 19.4595C144.508 19.4595 144.076 19.5815 143.695 19.8257C143.314 20.0649 143.012 20.3848 142.787 20.7852C142.567 21.1807 142.458 21.6177 142.458 22.0962ZM154.96 18.9028C154.96 19.2935 154.772 19.5107 154.396 19.5547C154.259 19.5693 154.086 19.5254 153.876 19.4229C153.666 19.3154 153.454 19.2617 153.239 19.2617C152.814 19.2617 152.477 19.3716 152.228 19.5913C151.979 19.8062 151.801 20.0967 151.693 20.4629C151.586 20.8291 151.532 21.2393 151.532 21.6934V25.4727C151.532 25.6875 151.466 25.8584 151.334 25.9854C151.208 26.1123 151.029 26.1758 150.8 26.1758C150.575 26.1758 150.397 26.1123 150.265 25.9854C150.133 25.8584 150.067 25.6851 150.067 25.4653V18.7197C150.067 18.5 150.121 18.3193 150.229 18.1777C150.341 18.0361 150.492 17.9653 150.683 17.9653C150.795 17.9653 150.924 18.0142 151.071 18.1118C151.222 18.2046 151.327 18.3657 151.386 18.5952L151.459 19.1226C151.522 18.9858 151.645 18.8271 151.825 18.6465C152.006 18.4658 152.221 18.3096 152.47 18.1777C152.719 18.041 152.978 17.9727 153.246 17.9727C153.744 17.9727 154.154 18.0312 154.477 18.1484C154.799 18.2607 154.96 18.5122 154.96 18.9028ZM163.024 17.9727C163.498 17.9727 163.913 18.0874 164.269 18.3169C164.63 18.5464 164.926 18.8247 165.155 19.1519C165.429 18.8345 165.758 18.5586 166.144 18.3242C166.53 18.085 166.959 17.9653 167.433 17.9653C168.058 17.9653 168.576 18.1338 168.986 18.4707C169.401 18.8027 169.708 19.2397 169.909 19.7817C170.109 20.3237 170.209 20.9097 170.209 21.5396L170.216 25.4434C170.216 25.6387 170.146 25.8071 170.004 25.9487C169.862 26.0903 169.689 26.1611 169.484 26.1611C169.279 26.1611 169.105 26.0903 168.964 25.9487C168.822 25.8071 168.751 25.6387 168.751 25.4434L168.744 21.5542C168.744 21.1831 168.71 20.8364 168.642 20.5142C168.573 20.187 168.449 19.9233 168.268 19.7231C168.087 19.5229 167.826 19.4229 167.484 19.4229C167.123 19.4229 166.813 19.5229 166.554 19.7231C166.3 19.9233 166.105 20.187 165.968 20.5142C165.836 20.8364 165.771 21.1855 165.771 21.5615L165.778 25.4653C165.778 25.6606 165.705 25.8291 165.558 25.9707C165.417 26.1074 165.246 26.1758 165.045 26.1758C164.84 26.1758 164.667 26.105 164.525 25.9634C164.384 25.8218 164.313 25.6533 164.313 25.458V21.5688C164.313 21.1099 164.235 20.7217 164.079 20.4043C163.927 20.0869 163.729 19.8477 163.485 19.6865C163.246 19.5205 163 19.4375 162.746 19.4375C162.384 19.4375 162.06 19.606 161.771 19.9429C161.483 20.2798 161.339 20.8047 161.339 21.5176V25.4653C161.339 25.6606 161.266 25.8291 161.12 25.9707C160.978 26.1074 160.807 26.1758 160.607 26.1758C160.407 26.1758 160.233 26.105 160.087 25.9634C159.945 25.8218 159.875 25.6533 159.875 25.458V18.6831C159.875 18.4829 159.911 18.3145 159.984 18.1777C160.062 18.0361 160.204 17.9653 160.409 17.9653C160.57 17.9653 160.719 18.0166 160.856 18.1191C160.993 18.2217 161.103 18.3926 161.186 18.6318L161.325 19.0347C161.481 18.7124 161.72 18.4561 162.042 18.2656C162.37 18.0703 162.697 17.9727 163.024 17.9727ZM175.299 17.98C175.861 17.98 176.383 18.0874 176.867 18.3022C177.355 18.5171 177.782 18.8149 178.148 19.1958C178.515 19.5767 178.8 20.0137 179.005 20.5068C179.215 21 179.32 21.5249 179.32 22.0815C179.32 22.6284 179.215 23.1484 179.005 23.6416C178.795 24.1299 178.505 24.562 178.134 24.938C177.768 25.3091 177.34 25.6021 176.852 25.8169C176.369 26.0317 175.851 26.1392 175.299 26.1392C174.752 26.1392 174.235 26.0342 173.747 25.8242C173.263 25.6143 172.836 25.3237 172.465 24.9526C172.099 24.5815 171.811 24.1519 171.601 23.6636C171.391 23.1704 171.286 22.6431 171.286 22.0815C171.286 21.5249 171.391 21 171.601 20.5068C171.811 20.0137 172.099 19.5791 172.465 19.2031C172.836 18.8223 173.263 18.5244 173.747 18.3096C174.23 18.0898 174.748 17.98 175.299 17.98ZM172.765 22.0962C172.765 22.5698 172.88 23.002 173.109 23.3926C173.344 23.7783 173.654 24.0859 174.04 24.3154C174.425 24.5449 174.848 24.6597 175.307 24.6597C175.775 24.6597 176.2 24.5425 176.581 24.3081C176.967 24.0688 177.272 23.7539 177.497 23.3633C177.726 22.9727 177.841 22.5454 177.841 22.0815C177.841 21.6079 177.729 21.1733 177.504 20.7778C177.279 20.3774 176.974 20.0576 176.588 19.8184C176.208 19.5791 175.778 19.4595 175.299 19.4595C174.816 19.4595 174.384 19.5815 174.003 19.8257C173.622 20.0649 173.319 20.3848 173.095 20.7852C172.875 21.1807 172.765 21.6177 172.765 22.0962ZM180.045 22.0596C180.045 21.5078 180.148 20.9707 180.353 20.4482C180.558 19.9258 180.861 19.4644 181.261 19.064C181.618 18.7173 182.028 18.4487 182.492 18.2583C182.956 18.0679 183.437 17.9727 183.935 17.9727C184.442 17.9727 184.894 18.0801 185.29 18.2949C185.685 18.5098 186.039 18.8003 186.352 19.1665V16.083C186.352 15.8828 186.422 15.7119 186.564 15.5703C186.71 15.4238 186.884 15.3506 187.084 15.3506C187.284 15.3506 187.455 15.4238 187.597 15.5703C187.743 15.7119 187.816 15.8828 187.816 16.083V25.436C187.816 25.6362 187.743 25.8096 187.597 25.9561C187.455 26.0977 187.284 26.1685 187.084 26.1685C186.884 26.1685 186.732 26.0977 186.63 25.9561C186.532 25.8096 186.469 25.6362 186.439 25.436L186.352 24.8428C186.073 25.2432 185.705 25.5581 185.246 25.7876C184.792 26.0171 184.337 26.1318 183.883 26.1318C183.332 26.1318 182.821 26.022 182.353 25.8022C181.889 25.5825 181.483 25.2847 181.137 24.9087C180.79 24.5278 180.521 24.0933 180.331 23.605C180.141 23.1167 180.045 22.6016 180.045 22.0596ZM183.869 24.667C184.186 24.667 184.501 24.5962 184.813 24.4546C185.126 24.313 185.392 24.1226 185.612 23.8833C185.832 23.6392 186 23.3535 186.117 23.0264C186.239 22.6992 186.3 22.3647 186.3 22.0229C186.3 21.5542 186.198 21.1221 185.993 20.7266C185.788 20.3311 185.504 20.0137 185.143 19.7744C184.787 19.5352 184.374 19.4155 183.905 19.4155C183.446 19.4155 183.034 19.5425 182.667 19.7964C182.306 20.0454 182.021 20.3726 181.811 20.7778C181.605 21.1782 181.503 21.6055 181.503 22.0596C181.503 22.5137 181.605 22.9409 181.811 23.3413C182.016 23.7368 182.296 24.0566 182.653 24.3008C183.014 24.5449 183.419 24.667 183.869 24.667ZM192.819 18.002C193.468 18.002 194.064 18.1631 194.606 18.4854C195.148 18.8076 195.583 19.2422 195.91 19.7891C196.242 20.3311 196.408 20.9341 196.408 21.5981C196.408 21.7349 196.4 21.874 196.386 22.0156C196.366 22.1963 196.283 22.3501 196.137 22.4771C195.995 22.5991 195.834 22.6602 195.653 22.6602L190.534 22.6675C190.617 23.019 190.773 23.3486 191.002 23.6562C191.232 23.9639 191.51 24.2129 191.837 24.4033C192.169 24.5938 192.531 24.689 192.921 24.689C193.341 24.689 193.717 24.5864 194.049 24.3813C194.381 24.1763 194.64 23.9395 194.826 23.6709C194.884 23.5781 194.972 23.5 195.089 23.4365C195.211 23.373 195.326 23.3413 195.434 23.3413C195.634 23.3413 195.805 23.4146 195.946 23.561C196.093 23.7075 196.166 23.8809 196.166 24.0811C196.166 24.2373 196.122 24.3765 196.034 24.4985C195.731 24.9429 195.314 25.3286 194.782 25.6558C194.254 25.978 193.642 26.1392 192.943 26.1392C192.382 26.1392 191.859 26.0293 191.376 25.8096C190.897 25.5898 190.48 25.2896 190.124 24.9087C189.767 24.5278 189.489 24.0908 189.289 23.5977C189.093 23.0996 188.996 22.5747 188.996 22.0229C188.996 21.4907 189.093 20.9854 189.289 20.5068C189.484 20.0234 189.755 19.5938 190.102 19.2178C190.453 18.8418 190.861 18.5464 191.325 18.3315C191.789 18.1118 192.287 18.002 192.819 18.002ZM194.899 21.1953C194.806 20.7168 194.567 20.3091 194.181 19.9722C193.795 19.6353 193.341 19.4668 192.819 19.4668C192.287 19.4668 191.815 19.6401 191.405 19.9868C191 20.3335 190.727 20.7388 190.585 21.2026L194.899 21.1953Z" fill="black"/>
<defs>
<filter id="filter0_d_215_8" x="0" y="0" width="317" height="52" filterUnits="userSpaceOnUse" color-interpolation-filters="sRGB">
<feFlood flood-opacity="0" result="BackgroundImageFix"/>
<feColorMatrix in="SourceAlpha" type="matrix" values="0 0 0 0 0 0 0 0 0 0 0 0 0 0 0 0 0 0 127 0" result="hardAlpha"/>
<feOffset dy="6"/>
<feGaussianBlur stdDeviation="3"/>
<feComposite in2="hardAlpha" operator="out"/>
<feColorMatrix type="matrix" values="0 0 0 0 0 0 0 0 0 0 0 0 0 0 0 0 0 0 0.25 0"/>
<feBlend mode="normal" in2="BackgroundImageFix" result="effect1_dropShadow_215_8"/>
<feBlend mode="normal" in="SourceGraphic" in2="effect1_dropShadow_215_8" result="shape"/>
</filter>
</defs>
</svg>
