<svg width="317" height="52" viewBox="0 0 317 52" fill="none" xmlns="http://www.w3.org/2000/svg">
<g filter="url(#filter0_d_216_9)">
<rect x="6" width="305" height="40" rx="15" fill="#F9FFD2"/>
</g>
<path d="M124.088 14.7827C124.142 14.6606 124.232 14.5581 124.359 14.4751C124.491 14.3872 124.625 14.3433 124.762 14.3433C124.894 14.3433 125.025 14.3872 125.157 14.4751C125.294 14.5581 125.387 14.6606 125.436 14.7827L129.464 24.1284C129.508 24.2261 129.53 24.3262 129.53 24.4287C129.53 24.6289 129.457 24.8022 129.31 24.9487C129.168 25.0903 128.998 25.1611 128.797 25.1611C128.661 25.1611 128.526 25.1172 128.395 25.0293C128.263 24.9414 128.17 24.8364 128.116 24.7144L126.864 21.8066L122.689 21.748L121.407 24.7217C121.358 24.8438 121.268 24.9487 121.136 25.0366C121.004 25.1294 120.87 25.1758 120.733 25.1758C120.533 25.1758 120.36 25.105 120.213 24.9634C120.072 24.8169 120.001 24.6436 120.001 24.4434C120.001 24.3408 120.023 24.2407 120.067 24.1431L124.088 14.7827ZM124.762 16.9287L123.319 20.2905L126.227 20.3271L124.762 16.9287ZM129.962 21.0522C129.962 20.5103 130.057 19.9951 130.248 19.5068C130.438 19.0186 130.707 18.584 131.053 18.2031C131.4 17.8223 131.803 17.522 132.262 17.3022C132.726 17.0825 133.229 16.9727 133.771 16.9727C134.308 16.9727 134.793 17.0776 135.228 17.2876C135.667 17.4927 136.043 17.7661 136.356 18.1079C136.673 18.4448 136.91 18.8135 137.066 19.2139C137.101 19.2969 137.118 19.3896 137.118 19.4922C137.118 19.6924 137.044 19.8657 136.898 20.0122C136.756 20.1538 136.585 20.2246 136.385 20.2246C136.249 20.2246 136.114 20.1782 135.982 20.0854C135.851 19.9927 135.758 19.8804 135.704 19.7485C135.567 19.397 135.328 19.0918 134.986 18.833C134.649 18.5693 134.244 18.4375 133.771 18.4375C133.326 18.4375 132.926 18.562 132.569 18.811C132.218 19.0552 131.939 19.375 131.734 19.7705C131.529 20.166 131.427 20.5933 131.427 21.0522C131.427 21.5161 131.532 21.9531 131.742 22.3633C131.952 22.7686 132.24 23.0981 132.606 23.3521C132.972 23.6011 133.385 23.7256 133.844 23.7256C134.293 23.7256 134.681 23.6133 135.008 23.3887C135.335 23.1592 135.582 22.8931 135.748 22.5903C135.807 22.4829 135.899 22.3926 136.026 22.3193C136.153 22.2412 136.278 22.2021 136.4 22.2021C136.6 22.2021 136.771 22.2754 136.913 22.4219C137.059 22.5635 137.132 22.7344 137.132 22.9346C137.132 23.0566 137.101 23.1763 137.037 23.2935C136.759 23.8062 136.344 24.2505 135.792 24.6265C135.24 25.0024 134.591 25.1904 133.844 25.1904C133.287 25.1904 132.772 25.0806 132.298 24.8608C131.83 24.6362 131.419 24.3311 131.068 23.9453C130.721 23.5596 130.45 23.1201 130.255 22.627C130.06 22.1289 129.962 21.604 129.962 21.0522ZM139.396 15.6689C139.396 15.4688 139.466 15.2979 139.608 15.1562C139.75 15.0098 139.923 14.9365 140.128 14.9365C140.328 14.9365 140.499 15.0098 140.641 15.1562C140.787 15.2979 140.86 15.4688 140.86 15.6689V17.1265H141.842C142.032 17.1265 142.196 17.1948 142.333 17.3315C142.469 17.4683 142.538 17.6318 142.538 17.8223C142.538 18.0127 142.469 18.1763 142.333 18.313C142.196 18.4497 142.032 18.5181 141.842 18.5181H140.853L140.846 23.0518V23.0664C140.846 23.3057 140.873 23.4717 140.926 23.5645C140.98 23.6523 141.09 23.6963 141.256 23.6963C141.466 23.6963 141.651 23.6401 141.812 23.5278C141.871 23.4888 141.942 23.4546 142.025 23.4253C142.108 23.3911 142.188 23.374 142.267 23.374C142.467 23.374 142.638 23.4448 142.779 23.5864C142.926 23.728 142.999 23.8989 142.999 24.0991C142.999 24.3384 142.901 24.5312 142.706 24.6777C142.521 24.8193 142.308 24.9365 142.069 25.0293C141.83 25.1221 141.573 25.1685 141.3 25.1685C140.685 25.1685 140.211 24.9805 139.879 24.6045C139.547 24.2236 139.381 23.75 139.381 23.1836V23.1177L139.388 18.5254H138.443C138.253 18.5254 138.089 18.457 137.953 18.3203C137.816 18.1836 137.748 18.02 137.748 17.8296C137.748 17.6392 137.816 17.4756 137.953 17.3389C138.089 17.2021 138.253 17.1338 138.443 17.1338H139.396V15.6689ZM144.662 16.2256C144.437 16.2256 144.254 16.1572 144.112 16.0205C143.971 15.8789 143.897 15.7056 143.893 15.5005L143.878 14.9438C143.878 14.7583 143.961 14.6094 144.127 14.4971C144.293 14.3799 144.452 14.3213 144.603 14.3213C144.808 14.3213 144.979 14.3921 145.116 14.5337C145.257 14.6753 145.331 14.8462 145.335 15.0464L145.343 15.4858C145.343 15.6763 145.279 15.8472 145.152 15.9985C145.025 16.1499 144.862 16.2256 144.662 16.2256ZM143.871 17.6099C143.871 17.4243 143.949 17.2729 144.105 17.1558C144.261 17.0386 144.413 16.98 144.559 16.98C144.774 16.98 144.957 17.0435 145.108 17.1704C145.26 17.2974 145.335 17.4658 145.335 17.6758V17.6831L145.35 24.4653C145.35 24.6606 145.277 24.8267 145.13 24.9634C144.989 25.1001 144.818 25.1685 144.618 25.1685C144.413 25.1685 144.239 25.1001 144.098 24.9634C143.956 24.8218 143.885 24.6533 143.885 24.458L143.871 17.6099ZM152.857 16.98C153.033 16.98 153.192 17.0508 153.333 17.1924C153.48 17.334 153.553 17.4902 153.553 17.6611C153.553 17.8125 153.529 17.937 153.48 18.0347L150.389 24.7217C150.257 25 150.033 25.1392 149.715 25.1392C149.388 25.1392 149.168 24.9902 149.056 24.6924L146.288 18.0054C146.249 17.9224 146.229 17.8076 146.229 17.6611C146.229 17.5049 146.295 17.3535 146.427 17.207C146.563 17.0557 146.715 16.98 146.881 16.98C147.262 16.98 147.516 17.1313 147.643 17.4341L149.774 22.6196L152.154 17.4048C152.286 17.1216 152.521 16.98 152.857 16.98ZM157.633 17.002C158.282 17.002 158.878 17.1631 159.42 17.4854C159.962 17.8076 160.396 18.2422 160.724 18.7891C161.056 19.3311 161.222 19.9341 161.222 20.5981C161.222 20.7349 161.214 20.874 161.2 21.0156C161.18 21.1963 161.097 21.3501 160.951 21.4771C160.809 21.5991 160.648 21.6602 160.467 21.6602L155.348 21.6675C155.431 22.019 155.587 22.3486 155.816 22.6562C156.046 22.9639 156.324 23.2129 156.651 23.4033C156.983 23.5938 157.345 23.689 157.735 23.689C158.155 23.689 158.531 23.5864 158.863 23.3813C159.195 23.1763 159.454 22.9395 159.64 22.6709C159.698 22.5781 159.786 22.5 159.903 22.4365C160.025 22.373 160.14 22.3413 160.248 22.3413C160.448 22.3413 160.619 22.4146 160.76 22.561C160.907 22.7075 160.98 22.8809 160.98 23.0811C160.98 23.2373 160.936 23.3765 160.848 23.4985C160.545 23.9429 160.128 24.3286 159.596 24.6558C159.068 24.978 158.456 25.1392 157.757 25.1392C157.196 25.1392 156.673 25.0293 156.19 24.8096C155.711 24.5898 155.294 24.2896 154.938 23.9087C154.581 23.5278 154.303 23.0908 154.103 22.5977C153.907 22.0996 153.81 21.5747 153.81 21.0229C153.81 20.4907 153.907 19.9854 154.103 19.5068C154.298 19.0234 154.569 18.5938 154.916 18.2178C155.267 17.8418 155.675 17.5464 156.139 17.3315C156.603 17.1118 157.101 17.002 157.633 17.002ZM159.713 20.1953C159.62 19.7168 159.381 19.3091 158.995 18.9722C158.609 18.6353 158.155 18.4668 157.633 18.4668C157.101 18.4668 156.629 18.6401 156.219 18.9868C155.814 19.3335 155.541 19.7388 155.399 20.2026L159.713 20.1953ZM169.542 16.9727C170.016 16.9727 170.431 17.0874 170.787 17.3169C171.148 17.5464 171.444 17.8247 171.673 18.1519C171.947 17.8345 172.276 17.5586 172.662 17.3242C173.048 17.085 173.478 16.9653 173.951 16.9653C174.576 16.9653 175.094 17.1338 175.504 17.4707C175.919 17.8027 176.227 18.2397 176.427 18.7817C176.627 19.3237 176.727 19.9097 176.727 20.5396L176.734 24.4434C176.734 24.6387 176.664 24.8071 176.522 24.9487C176.38 25.0903 176.207 25.1611 176.002 25.1611C175.797 25.1611 175.624 25.0903 175.482 24.9487C175.34 24.8071 175.27 24.6387 175.27 24.4434L175.262 20.5542C175.262 20.1831 175.228 19.8364 175.16 19.5142C175.091 19.187 174.967 18.9233 174.786 18.7231C174.605 18.5229 174.344 18.4229 174.002 18.4229C173.641 18.4229 173.331 18.5229 173.072 18.7231C172.818 18.9233 172.623 19.187 172.486 19.5142C172.354 19.8364 172.289 20.1855 172.289 20.5615L172.296 24.4653C172.296 24.6606 172.223 24.8291 172.076 24.9707C171.935 25.1074 171.764 25.1758 171.563 25.1758C171.358 25.1758 171.185 25.105 171.043 24.9634C170.902 24.8218 170.831 24.6533 170.831 24.458V20.5688C170.831 20.1099 170.753 19.7217 170.597 19.4043C170.445 19.0869 170.248 18.8477 170.003 18.6865C169.764 18.5205 169.518 18.4375 169.264 18.4375C168.902 18.4375 168.578 18.606 168.29 18.9429C168.001 19.2798 167.857 19.8047 167.857 20.5176V24.4653C167.857 24.6606 167.784 24.8291 167.638 24.9707C167.496 25.1074 167.325 25.1758 167.125 25.1758C166.925 25.1758 166.751 25.105 166.605 24.9634C166.463 24.8218 166.393 24.6533 166.393 24.458V17.6831C166.393 17.4829 166.429 17.3145 166.502 17.1777C166.581 17.0361 166.722 16.9653 166.927 16.9653C167.088 16.9653 167.237 17.0166 167.374 17.1191C167.511 17.2217 167.621 17.3926 167.704 17.6318L167.843 18.0347C167.999 17.7124 168.238 17.4561 168.561 17.2656C168.888 17.0703 169.215 16.9727 169.542 16.9727ZM181.817 16.98C182.379 16.98 182.901 17.0874 183.385 17.3022C183.873 17.5171 184.3 17.8149 184.667 18.1958C185.033 18.5767 185.318 19.0137 185.523 19.5068C185.733 20 185.838 20.5249 185.838 21.0815C185.838 21.6284 185.733 22.1484 185.523 22.6416C185.313 23.1299 185.023 23.562 184.652 23.938C184.286 24.3091 183.858 24.6021 183.37 24.8169C182.887 25.0317 182.369 25.1392 181.817 25.1392C181.271 25.1392 180.753 25.0342 180.265 24.8242C179.781 24.6143 179.354 24.3237 178.983 23.9526C178.617 23.5815 178.329 23.1519 178.119 22.6636C177.909 22.1704 177.804 21.6431 177.804 21.0815C177.804 20.5249 177.909 20 178.119 19.5068C178.329 19.0137 178.617 18.5791 178.983 18.2031C179.354 17.8223 179.781 17.5244 180.265 17.3096C180.748 17.0898 181.266 16.98 181.817 16.98ZM179.283 21.0962C179.283 21.5698 179.398 22.002 179.627 22.3926C179.862 22.7783 180.172 23.0859 180.558 23.3154C180.943 23.5449 181.366 23.6597 181.825 23.6597C182.293 23.6597 182.718 23.5425 183.099 23.3081C183.485 23.0688 183.79 22.7539 184.015 22.3633C184.244 21.9727 184.359 21.5454 184.359 21.0815C184.359 20.6079 184.247 20.1733 184.022 19.7778C183.797 19.3774 183.492 19.0576 183.106 18.8184C182.726 18.5791 182.296 18.4595 181.817 18.4595C181.334 18.4595 180.902 18.5815 180.521 18.8257C180.14 19.0649 179.837 19.3848 179.613 19.7852C179.393 20.1807 179.283 20.6177 179.283 21.0962ZM186.563 21.0596C186.563 20.5078 186.666 19.9707 186.871 19.4482C187.076 18.9258 187.379 18.4644 187.779 18.064C188.136 17.7173 188.546 17.4487 189.01 17.2583C189.474 17.0679 189.955 16.9727 190.453 16.9727C190.96 16.9727 191.412 17.0801 191.808 17.2949C192.203 17.5098 192.557 17.8003 192.87 18.1665V15.083C192.87 14.8828 192.94 14.7119 193.082 14.5703C193.229 14.4238 193.402 14.3506 193.602 14.3506C193.802 14.3506 193.973 14.4238 194.115 14.5703C194.261 14.7119 194.334 14.8828 194.334 15.083V24.436C194.334 24.6362 194.261 24.8096 194.115 24.9561C193.973 25.0977 193.802 25.1685 193.602 25.1685C193.402 25.1685 193.25 25.0977 193.148 24.9561C193.05 24.8096 192.987 24.6362 192.958 24.436L192.87 23.8428C192.591 24.2432 192.223 24.5581 191.764 24.7876C191.31 25.0171 190.855 25.1318 190.401 25.1318C189.85 25.1318 189.339 25.022 188.871 24.8022C188.407 24.5825 188.001 24.2847 187.655 23.9087C187.308 23.5278 187.04 23.0933 186.849 22.605C186.659 22.1167 186.563 21.6016 186.563 21.0596ZM190.387 23.667C190.704 23.667 191.019 23.5962 191.332 23.4546C191.644 23.313 191.91 23.1226 192.13 22.8833C192.35 22.6392 192.518 22.3535 192.635 22.0264C192.757 21.6992 192.818 21.3647 192.818 21.0229C192.818 20.5542 192.716 20.1221 192.511 19.7266C192.306 19.3311 192.022 19.0137 191.661 18.7744C191.305 18.5352 190.892 18.4155 190.423 18.4155C189.964 18.4155 189.552 18.5425 189.186 18.7964C188.824 19.0454 188.539 19.3726 188.329 19.7778C188.124 20.1782 188.021 20.6055 188.021 21.0596C188.021 21.5137 188.124 21.9409 188.329 22.3413C188.534 22.7368 188.814 23.0566 189.171 23.3008C189.532 23.5449 189.938 23.667 190.387 23.667ZM199.337 17.002C199.986 17.002 200.582 17.1631 201.124 17.4854C201.666 17.8076 202.101 18.2422 202.428 18.7891C202.76 19.3311 202.926 19.9341 202.926 20.5981C202.926 20.7349 202.918 20.874 202.904 21.0156C202.884 21.1963 202.801 21.3501 202.655 21.4771C202.513 21.5991 202.352 21.6602 202.171 21.6602L197.052 21.6675C197.135 22.019 197.291 22.3486 197.521 22.6562C197.75 22.9639 198.028 23.2129 198.355 23.4033C198.688 23.5938 199.049 23.689 199.439 23.689C199.859 23.689 200.235 23.5864 200.567 23.3813C200.899 23.1763 201.158 22.9395 201.344 22.6709C201.402 22.5781 201.49 22.5 201.607 22.4365C201.729 22.373 201.844 22.3413 201.952 22.3413C202.152 22.3413 202.323 22.4146 202.464 22.561C202.611 22.7075 202.684 22.8809 202.684 23.0811C202.684 23.2373 202.64 23.3765 202.552 23.4985C202.25 23.9429 201.832 24.3286 201.3 24.6558C200.772 24.978 200.16 25.1392 199.461 25.1392C198.9 25.1392 198.377 25.0293 197.894 24.8096C197.416 24.5898 196.998 24.2896 196.642 23.9087C196.285 23.5278 196.007 23.0908 195.807 22.5977C195.611 22.0996 195.514 21.5747 195.514 21.0229C195.514 20.4907 195.611 19.9854 195.807 19.5068C196.002 19.0234 196.273 18.5938 196.62 18.2178C196.971 17.8418 197.379 17.5464 197.843 17.3315C198.307 17.1118 198.805 17.002 199.337 17.002ZM201.417 20.1953C201.324 19.7168 201.085 19.3091 200.699 18.9722C200.313 18.6353 199.859 18.4668 199.337 18.4668C198.805 18.4668 198.333 18.6401 197.923 18.9868C197.518 19.3335 197.245 19.7388 197.103 20.2026L201.417 20.1953Z" fill="black" fill-opacity="0.5"/>
<defs>
<filter id="filter0_d_216_9" x="0" y="0" width="317" height="52" filterUnits="userSpaceOnUse" color-interpolation-filters="sRGB">
<feFlood flood-opacity="0" result="BackgroundImageFix"/>
<feColorMatrix in="SourceAlpha" type="matrix" values="0 0 0 0 0 0 0 0 0 0 0 0 0 0 0 0 0 0 127 0" result="hardAlpha"/>
<feOffset dy="6"/>
<feGaussianBlur stdDeviation="3"/>
<feComposite in2="hardAlpha" operator="out"/>
<feColorMatrix type="matrix" values="0 0 0 0 0 0 0 0 0 0 0 0 0 0 0 0 0 0 0.25 0"/>
<feBlend mode="normal" in2="BackgroundImageFix" result="effect1_dropShadow_216_9"/>
<feBlend mode="normal" in="SourceGraphic" in2="effect1_dropShadow_216_9" result="shape"/>
</filter>
</defs>
</svg>
