<svg width="365" height="365" viewBox="0 0 365 365" fill="none" xmlns="http://www.w3.org/2000/svg">
<path d="M172.751 0.813819C165.132 3.54627 159.772 9.11627 157.46 16.6831C156.882 18.6799 156.724 30.7132 156.724 90.1966C156.724 160.452 156.724 161.293 157.775 164.446C159.036 168.072 159.772 169.438 162.609 172.853C163.713 174.22 164.606 175.586 164.606 175.848C164.606 176.847 170.544 181.313 173.907 182.837C181.579 186.358 190.827 185.727 197.343 181.261C202.65 177.635 206.434 171.697 207.642 165.181C208.063 163.08 208.22 141.01 208.22 94.0325C208.22 18.6799 208.378 22.5684 204.805 15.6847C203.754 13.793 201.705 11.0605 200.233 9.5892C198.709 8.17043 197.869 7.48731 198.289 8.06533C198.657 8.64335 197.869 7.96024 196.397 6.59401C194.978 5.22778 192.036 3.17844 189.881 2.1275C186.308 0.340894 185.573 0.183253 180.686 0.0256113C176.64 -0.079483 174.748 0.130706 172.751 0.813819Z" fill="white"/>
<path d="M106.542 15.3694C53.2062 38.8055 14.2161 87.9371 3.07614 145.739C-0.917446 166.443 -1.02254 191.087 2.76086 212.054C6.33407 231.654 14.1111 252.83 23.9374 269.75C25.0934 271.747 26.0393 273.691 26.0393 274.059C26.0393 274.427 26.1969 274.585 26.4071 274.48C26.5647 274.375 27.1953 275.005 27.7208 275.898C28.4039 277.054 28.4564 277.422 27.931 277.16C27.5106 276.949 27.7733 277.265 28.509 277.895C29.2446 278.526 29.5074 278.894 29.1395 278.683C28.5615 278.368 28.509 278.526 28.9294 279.261C29.6125 280.47 31.3991 282.677 30.8211 281.626C30.6109 281.153 30.6634 280.995 31.0312 281.258C31.3465 281.468 31.5042 281.941 31.3465 282.309C31.1889 282.677 31.5042 283.308 31.9771 283.728C32.7653 284.358 32.8704 284.358 32.45 283.728C32.1873 283.255 32.2398 283.097 32.6077 283.36C32.9229 283.57 33.0806 284.043 32.9229 284.411C32.7653 284.831 32.9229 285.304 33.2908 285.567C33.7112 285.83 33.8162 285.725 33.501 285.199C33.2382 284.779 33.2908 284.621 33.5535 284.884C33.8162 285.147 34.0264 285.725 34.0264 286.198C34.0264 286.671 34.2892 287.091 34.657 287.091C34.9723 287.091 35.4452 287.301 35.7079 287.564C35.9707 287.827 35.8656 287.879 35.4978 287.669C35.1299 287.459 34.8146 287.511 34.8146 287.774C34.8146 288.562 36.1809 289.508 36.6538 289.035C36.9165 288.825 36.9165 288.983 36.7063 289.35C35.9181 290.717 50.6314 307.637 59.9322 316.097C88.5704 342.003 121.15 357.504 158.721 363.074C168.022 364.44 189.724 365.018 199.813 364.125C243.059 360.289 282.837 341.53 313.157 310.632C342.531 280.785 360.397 242.163 364.338 199.968C365.231 190.246 364.653 167.809 363.287 158.613C357.192 117.731 339.641 82.84 310.74 54.0441C301.859 45.2688 290.614 35.8628 289.563 36.4934C289.196 36.7036 289.038 36.7036 289.248 36.4408C289.458 36.2306 289.406 35.7052 289.091 35.2848C288.355 34.444 287.356 34.3389 287.882 35.2322C288.092 35.6001 288.04 35.6526 287.619 35.4424C287.304 35.2322 287.146 34.8644 287.304 34.6017C287.619 34.0762 285.044 32.3422 284.466 32.71C284.204 32.8676 283.678 32.6049 283.31 32.0794C282.68 31.2912 282.68 31.2387 283.363 31.7116C283.836 31.9743 283.678 31.7641 282.995 31.1861C281.366 29.7148 278.371 27.9807 278.896 28.7689C279.159 29.2419 279.001 29.2419 278.213 28.7689C277.583 28.4011 277.267 27.8756 277.372 27.6655C277.53 27.4027 277.478 27.2451 277.215 27.2976C276.111 27.5078 275.428 27.1925 275.796 26.6145C276.006 26.2467 275.954 26.1941 275.586 26.4043C274.798 26.8772 272.696 25.4585 273.274 24.8805C273.484 24.6177 273.379 24.6177 273.011 24.8279C272.696 24.9855 271.172 24.4075 269.648 23.5142C264.026 20.2038 247.736 12.5319 246.317 12.5319C246.159 12.5319 246.054 24.0397 246.054 38.1223V63.7654L248.419 65.2367C249.733 66.0774 250.679 66.9707 250.521 67.1809C249.995 68.0217 253.148 71.0169 260.084 76.2191C272.486 85.4674 284.046 97.5007 291.77 109.219C293.557 111.951 295.239 114.158 295.501 114.106C295.711 114 295.764 114.368 295.606 114.841C295.396 115.419 295.449 115.577 295.869 115.314C296.237 115.104 296.395 115.209 296.237 115.629C296.079 115.997 296.71 117.469 297.551 118.94C298.391 120.359 299.127 121.305 299.127 121.042C299.127 120.727 299.39 120.937 299.705 121.462C299.968 121.935 300.073 122.618 299.863 122.986C299.653 123.301 299.705 123.406 300.073 123.196C300.756 122.776 301.439 124.72 300.914 125.561C300.703 125.929 300.756 126.034 301.071 125.876C301.649 125.508 302.227 126.559 304.224 131.814C317.571 166.705 315.837 205.59 299.39 238.537C292.716 251.937 285.833 261.606 275.533 272.273C255.092 293.344 229.922 306.533 200.969 311.263C177.848 315.046 153.098 312.314 130.923 303.591C127.193 302.119 124.303 300.701 124.46 300.438C124.618 300.175 124.303 300.123 123.83 300.333C123.146 300.596 123.041 300.49 123.357 299.965C123.619 299.545 123.567 299.387 123.199 299.597C122.516 300.07 120.887 299.492 121.255 298.914C121.412 298.704 121.15 298.336 120.677 298.178C120.256 298.021 120.046 298.073 120.204 298.389C120.361 298.704 120.151 298.756 119.731 298.599C119.258 298.441 118.995 298.126 119.153 297.863C119.521 297.285 114.266 294.605 113.53 295.026C113.215 295.236 113.11 295.183 113.268 294.868C113.478 294.553 111.691 293.134 109.379 291.61C99.763 285.304 88.0975 274.742 80.846 265.757C66.3955 247.733 57.2523 227.082 53.3638 203.541C51.9976 195.238 51.9976 172.38 53.3638 164.131C59.144 129.134 76.5371 99.9704 104.282 78.6362C114.476 70.8592 115.895 69.5981 116.946 67.8641C118.47 65.2367 118.995 57.7224 118.785 40.1717C118.627 25.7212 118.522 23.6193 117.682 21.9378C116.631 19.8885 114.424 18.4171 113.951 19.5206C113.846 19.8885 113.688 18.4171 113.688 16.3153C113.635 14.2659 113.478 12.5319 113.268 12.5319C113.005 12.5844 110.01 13.8455 106.542 15.3694ZM298.076 118.152C298.391 118.73 298.496 119.203 298.391 119.203C298.234 119.203 297.866 118.73 297.551 118.152C297.235 117.574 297.13 117.101 297.235 117.101C297.393 117.101 297.761 117.574 298.076 118.152ZM118.102 297.338C118.26 297.653 118.049 297.705 117.629 297.548C116.683 297.18 116.526 296.812 117.261 296.812C117.576 296.812 117.944 297.022 118.102 297.338Z" fill="white"/>
</svg>
